#!OML:ASF F:\twosubjects\two\Thursday\Session 1\justin.ASF
:FULLY-SPECIFIED
:DEGREES
471
root 5.7736 17.2986 -6.96918 23.66 3.96591 4.6709
lowerback 25.1155 0.678613 -2.37529
upperback 5.66483 0.355354 0.624942
thorax -7.70107 0.225171 1.94045
lowerneck -17.8327 -6.0497 -13.1608
upperneck 11.9507 -6.51581 9.92448
head 7.35486 -2.87639 4.64391
rclavicle 2.5842e-014 -3.57812e-015
rhumerus -11.0311 33.5119 -83.8654
rradius 59.2409
rwrist 15.6634
rhand -49.6847 29.5004
rfingers 7.12502
rthumb -22.2864 0.765553
lclavicle 2.5842e-014 -3.57812e-015
lhumerus -1.98186 -39.1511 81.4788
lradius 51.6094
lwrist -33.7377
lhand -23.9614 54.9754
lfingers 7.12502
lthumb 2.51463 -275.06
rfemur -44.7441 -10.0808 4.52777
rtibia 44.6491
rfoot -16.7856 -15.228
rtoes -20.5294
lfemur -36.5632 5.19941 -5.09392
ltibia 22.6939
lfoot -4.22673 -4.9831
ltoes -38.1098
472
root 5.71723 17.3155 -6.97422 23.5891 4.8392 4.86423
lowerback 25.2528 0.527523 -2.11041
upperback 5.7196 0.228006 0.594555
thorax -7.70323 0.161539 1.79407
lowerneck -18.2016 -6.23531 -13.3182
upperneck 12.2332 -6.74435 10.1939
head 7.55401 -2.96049 4.72908
rclavicle 1.59028e-015 1.15295e-014
rhumerus -11.0934 32.9438 -84.1764
rradius 59.083
rwrist 15.9548
rhand -50.3626 29.8769
rfingers 7.12502
rthumb -22.9371 1.22131
lclavicle 1.59028e-015 1.15295e-014
lhumerus -1.39546 -39.2354 81.2488
lradius 51.1499
lwrist -33.9562
lhand -24.1658 54.6051
lfingers 7.12502
lthumb 2.3172 -275.428
rfemur -44.5136 -10.5611 4.75206
rtibia 44.9125
rfoot -16.9067 -15.7103
rtoes -19.2144
lfemur -36.2852 5.08765 -5.1202
ltibia 21.6437
lfoot -3.67623 -6.1581
ltoes -40.5427
473
root 5.66427 17.333 -6.98076 23.3599 5.76872 5.27981
lowerback 25.562 0.350487 -2.10441
upperback 5.83856 0.00892749 0.645431
thorax -7.71715 0.0598181 1.91567
lowerneck -17.8354 -6.30622 -13.7688
upperneck 11.5658 -6.81106 10.644
head 7.31661 -2.98211 4.94537
rclavicle -6.36111e-015 -1.27222e-014
rhumerus -10.9273 33.0036 -84.0535
rradius 58.9673
rwrist 15.739
rhand -50.9952 29.5687
rfingers 7.12502
rthumb -23.544 0.989756
lclavicle -6.36111e-015 -1.27222e-014
lhumerus -0.79593 -39.045 81.2588
lradius 50.6247
lwrist -34.4032
lhand -24.3781 54.3795
lfingers 7.12502
lthumb 2.11216 -275.651
rfemur -43.9746 -11.1073 4.67929
rtibia 45.0481
rfoot -16.9804 -16.1356
rtoes -20.082
lfemur -35.8239 4.49657 -5.20654
ltibia 20.5671
lfoot -2.9622 -6.8794
ltoes -41.1005
474
root 5.59543 17.3551 -6.9963 23.335 6.63174 5.57899
lowerback 25.7293 0.19858 -2.10893
upperback 5.82298 -0.187022 0.620604
thorax -7.80952 -0.0293981 1.95349
lowerneck -16.9741 -6.34988 -14.0603
upperneck 10.6714 -6.93132 11.0848
head 6.92661 -3.03772 5.12984
rclavicle 9.54166e-015 -9.93923e-015
rhumerus -11.0716 32.9077 -84.3066
rradius 58.9437
rwrist 15.3355
rhand -51.0166 29.639
rfingers 7.12502
rthumb -23.5645 1.06272
lclavicle 9.54166e-015 -9.93923e-015
lhumerus -0.390833 -39.082 81.055
lradius 50.2891
lwrist -34.5659
lhand -24.4737 53.9025
lfingers 7.12502
lthumb 2.01988 -276.127
rfemur -43.7063 -11.4816 4.78863
rtibia 45.1025
rfoot -16.3502 -16.5544
rtoes -21.8792
lfemur -35.6574 3.91936 -5.07354
ltibia 19.5165
lfoot -1.91832 -7.3981
ltoes -40.7069
475
root 5.52558 17.3835 -7.01151 23.483 7.3991 5.49922
lowerback 25.4552 0.0681252 -1.87254
upperback 5.88195 -0.283899 0.62467
thorax -7.60257 -0.0811175 1.84913
lowerneck -16.9207 -6.43219 -14.1358
upperneck 10.6042 -7.06172 11.2933
head 6.925 -3.08821 5.19619
rclavicle -8.74653e-015 1.19271e-014
rhumerus -11.1202 32.4371 -84.7402
rradius 58.7476
rwrist 15.4137
rhand -51.0207 30.6413
rfingers 7.12502
rthumb -23.5684 2.06549
lclavicle -8.74653e-015 1.19271e-014
lhumerus 0.144718 -39.0364 80.5693
lradius 50.0564
lwrist -34.7099
lhand -24.3704 53.4104
lfingers 7.12502
lthumb 2.11967 -276.62
rfemur -43.7411 -11.8222 5.40292
rtibia 45.16
rfoot -15.7713 -16.9657
rtoes -22.7371
lfemur -35.6634 3.72249 -4.63059
ltibia 18.4373
lfoot -0.862917 -8.21101
ltoes -40.9024
476
root 5.47214 17.4006 -7.02516 23.4816 8.17683 5.19665
lowerback 25.2748 -0.0575297 -1.32475
upperback 5.96226 -0.291333 0.721216
thorax -7.42562 -0.0942588 1.64017
lowerneck -17.1967 -6.59275 -14.4266
upperneck 10.8377 -7.23477 11.5811
head 7.09342 -3.15257 5.31755
rclavicle 1.19271e-014 -1.27222e-014
rhumerus -11.1146 32.0671 -84.9111
rradius 58.4789
rwrist 15.6003
rhand -51.4153 31.3726
rfingers 7.12502
rthumb -23.9469 2.84595
lclavicle 1.19271e-014 -1.27222e-014
lhumerus 0.680162 -38.8865 80.2543
lradius 49.7865
lwrist -35.3007
lhand -23.9245 52.8687
lfingers 7.12502
lthumb 2.55029 -277.167
rfemur -43.7055 -12.2782 6.2266
rtibia 45.256
rfoot -16.9249 -17.2781
rtoes -20.4237
lfemur -35.5744 3.72495 -4.07175
ltibia 17.4669
lfoot 0.153334 -8.8687
ltoes -39.5206
477
root 5.42054 17.4014 -7.0493 23.8344 8.54717 5.37595
lowerback 25.0929 -0.0111491 -1.43347
upperback 5.77546 -0.257687 0.721573
thorax -7.5411 -0.0740767 1.69231
lowerneck -17.3356 -6.76043 -14.6457
upperneck 11.1322 -7.41683 11.6186
head 7.24723 -3.24264 5.34267
rclavicle -1.59028e-014 1.59028e-014
rhumerus -11.3671 32.0905 -84.9494
rradius 58.2887
rwrist 15.5483
rhand -52.026 31.7018
rfingers 7.12502
rthumb -24.5325 3.25337
lclavicle -1.59028e-014 1.59028e-014
lhumerus 0.935858 -38.9488 80.1825
lradius 49.4907
lwrist -35.7735
lhand -23.4171 52.2359
lfingers 7.12502
lthumb 3.04032 -277.806
rfemur -44.1389 -12.5438 6.38336
rtibia 45.3454
rfoot -16.5699 -17.599
rtoes -21.9154
lfemur -35.854 3.71857 -4.06218
ltibia 16.7538
lfoot 1.18083 -8.95515
ltoes -37.6758
478
root 5.36781 17.3977 -7.07048 24.3168 8.5325 5.49788
lowerback 24.7244 0.206993 -1.77373
upperback 5.58978 -0.06066 0.727312
thorax -7.56572 0.0258034 1.83222
lowerneck -17.3814 -6.87878 -14.5986
upperneck 11.1893 -7.50405 11.1212
head 7.26073 -3.32228 5.15182
rclavicle 1.19271e-014 -2.54444e-014
rhumerus -11.5526 32.1796 -84.9269
rradius 58.0111
rwrist 15.3997
rhand -52.7046 32.0126
rfingers 7.12502
rthumb -25.1828 3.65393
lclavicle 1.19271e-014 -2.54444e-014
lhumerus 1.18125 -39.0375 80.2392
lradius 49.1817
lwrist -36.1747
lhand -22.8486 51.8896
lfingers 7.12502
lthumb 3.5893 -278.161
rfemur -44.8137 -12.369 6.41068
rtibia 45.4484
rfoot -15.242 -17.805
rtoes -24.2743
lfemur -36.1356 3.63414 -3.90659
ltibia 16.2214
lfoot 1.98629 -8.43274
ltoes -37.1666
479
root 5.32236 17.4018 -7.08763 24.5202 8.60568 5.00084
lowerback 24.3394 0.384087 -1.49465
upperback 5.54335 0.247309 0.832652
thorax -7.43407 0.165798 1.69284
lowerneck -17.2798 -6.82771 -13.948
upperneck 10.8069 -7.38483 9.90445
head 7.02411 -3.33873 4.64718
rclavicle -1.82882e-014 1.59028e-015
rhumerus -11.7029 32.1938 -84.9768
rradius 57.7562
rwrist 15.0766
rhand -53.0997 31.9647
rfingers 7.12502
rthumb -25.5613 3.65977
lclavicle -1.82882e-014 1.59028e-015
lhumerus 1.36715 -38.8203 80.4145
lradius 48.9298
lwrist -37.1245
lhand -21.9803 51.5223
lfingers 7.12502
lthumb 4.42775 -278.544
rfemur -45.2628 -11.9969 7.02948
rtibia 45.5051
rfoot -15.4344 -17.8909
rtoes -22.7878
lfemur -36.0573 3.48576 -2.98278
ltibia 15.6533
lfoot 2.26573 -7.29358
ltoes -36.5093
480
root 5.28509 17.388 -7.11338 24.7566 8.81281 4.7193
lowerback 23.9838 0.384548 -1.2797
upperback 5.41688 0.299057 0.794085
thorax -7.3929 0.186525 1.51118
lowerneck -16.9488 -6.92692 -14.0727
upperneck 10.7479 -7.62177 10.4576
head 7.00947 -3.42133 4.82826
rclavicle -1.19271e-014 1.43125e-014
rhumerus -12.0581 32.2835 -85.4297
rradius 57.6922
rwrist 14.7188
rhand -52.9283 31.5415
rfingers 7.12502
rthumb -25.3971 3.21312
lclavicle -1.19271e-014 1.43125e-014
lhumerus 1.2641 -38.5444 80.398
lradius 48.7217
lwrist -37.7297
lhand -21.5471 51.206
lfingers 7.12502
lthumb 4.84606 -278.869
rfemur -45.7379 -11.9536 7.49721
rtibia 45.5297
rfoot -16.6757 -17.9005
rtoes -19.6792
lfemur -36.1077 3.24624 -2.2335
ltibia 15.1958
lfoot 1.83086 -6.29095
ltoes -35.649
481
root 5.25287 17.3846 -7.13578 24.8801 9.09501 5.05237
lowerback 23.8564 0.280577 -1.43496
upperback 5.36496 0.114976 0.611705
thorax -7.37775 0.101473 1.45473
lowerneck -16.9821 -6.98459 -14.3794
upperneck 10.9611 -7.73621 11.0754
head 7.14005 -3.43877 5.07338
rclavicle 1.66979e-014 7.95139e-016
rhumerus -12.2208 32.2515 -85.8785
rradius 57.5837
rwrist 14.7728
rhand -52.6236 31.3603
rfingers 7.12502
rthumb -25.1051 2.99076
lclavicle 1.66979e-014 7.95139e-016
lhumerus 1.40857 -38.5371 80.0666
lradius 48.416
lwrist -37.6835
lhand -21.5555 51.2228
lfingers 7.12502
lthumb 4.83801 -278.852
rfemur -45.8159 -12.3815 7.39731
rtibia 45.487
rfoot -16.353 -17.8007
rtoes -18.2624
lfemur -36.0347 2.72421 -2.17072
ltibia 14.8126
lfoot 1.14674 -5.63805
ltoes -34.8369
482
root 5.22316 17.4049 -7.14817 24.6763 9.45418 5.60447
lowerback 24.0015 0.209163 -1.72193
upperback 5.52701 -0.0502088 0.523802
thorax -7.26668 0.0268322 1.57172
lowerneck -17.3269 -7.08409 -14.5467
upperneck 11.1466 -7.77017 10.9301
head 7.26247 -3.46466 5.04168
rclavicle 3.02153e-014 -1.82882e-014
rhumerus -11.9542 32.1864 -85.7753
rradius 57.3128
rwrist 15.0695
rhand -52.5918 32.0028
rfingers 7.12502
rthumb -25.0747 3.62893
lclavicle 3.02153e-014 -1.82882e-014
lhumerus 1.91561 -38.6276 79.8112
lradius 48.0905
lwrist -37.7721
lhand -21.5717 51.2424
lfingers 7.12502
lthumb 4.8223 -278.832
rfemur -45.2907 -12.8844 7.00546
rtibia 45.4286
rfoot -16.2167 -17.6773
rtoes -18.9685
lfemur -35.5266 2.30295 -2.63516
ltibia 14.4405
lfoot -0.00798034 -5.31195
ltoes -35.3994
483
root 5.19879 17.4152 -7.16692 24.5124 9.76857 5.81795
lowerback 24.156 0.172166 -1.84999
upperback 5.56099 -0.121364 0.603713
thorax -7.30448 -0.00341282 1.75441
lowerneck -17.2719 -7.07784 -14.6127
upperneck 11.1237 -7.68699 10.5433
head 7.21928 -3.46128 4.93211
rclavicle 1.90833e-014 -1.66979e-014
rhumerus -11.8123 32.3905 -85.5727
rradius 57.1127
rwrist 14.9034
rhand -52.5207 32.907
rfingers 7.12502
rthumb -25.0065 4.52364
lclavicle 1.90833e-014 -1.66979e-014
lhumerus 2.11117 -38.873 79.8381
lradius 47.7997
lwrist -37.3933
lhand -22.4147 51.6274
lfingers 7.12502
lthumb 4.0083 -278.431
rfemur -44.9522 -13.0293 6.82753
rtibia 45.3797
rfoot -15.9258 -17.672
rtoes -20.6338
lfemur -35.0237 2.37877 -2.96039
ltibia 14.1397
lfoot -1.37285 -5.37579
ltoes -35.4312
484
root 5.17573 17.4119 -7.20206 24.5706 9.90728 5.8124
lowerback 24.2417 0.182075 -1.87562
upperback 5.3417 -0.117961 0.615716
thorax -7.59056 0.00338755 1.78315
lowerneck -17.1441 -7.04154 -14.7235
upperneck 11.431 -7.65473 10.5887
head 7.30029 -3.45218 4.97441
rclavicle 2.06736e-014 -6.36111e-015
rhumerus -12.1011 32.4816 -85.8349
rradius 56.9589
rwrist 14.7972
rhand -52.6619 33.3472
rfingers 7.12502
rthumb -25.1418 4.98282
lclavicle 2.06736e-014 -6.36111e-015
lhumerus 1.97334 -39.326 79.8892
lradius 47.3892
lwrist -36.6909
lhand -23.4502 52.0625
lfingers 7.12502
lthumb 3.00834 -277.979
rfemur -45.1231 -12.9582 6.83551
rtibia 45.3549
rfoot -16.0146 -17.6886
rtoes -20.7246
lfemur -34.7764 2.58499 -2.9834
ltibia 13.9653
lfoot -2.12265 -5.55923
ltoes -33.5228
